<?xml version="1.0" encoding="UTF-8" standalone="no" ?>
<!DOCTYPE svg PUBLIC "-//W3C//DTD SVG 1.1//EN" "http://www.w3.org/Graphics/SVG/1.1/DTD/svg11.dtd">
<svg xmlns="http://www.w3.org/2000/svg" xmlns:xlink="http://www.w3.org/1999/xlink" version="1.1" width="400" height="400" viewBox="0 0 400 400" xml:space="preserve">
<desc>Created with Fabric.js 3.6.2</desc>
<defs>
</defs>
<g transform="matrix(0.39 0 0 0.39 200 200)" id="Layer_1"  >
<path style="stroke: none; stroke-width: 1; stroke-dasharray: none; stroke-linecap: butt; stroke-dashoffset: 0; stroke-linejoin: miter; stroke-miterlimit: 4; fill: rgb(0,0,0); fill-rule: nonzero; opacity: 1;"  transform=" translate(-256, -256)" d="M 437.012 74.982 C 390.66 28.641 326.733 0 255.997 0 S 121.334 28.641 74.982 74.982 C 28.636 121.339 0 185.407 0 255.997 c 0 70.737 28.636 134.663 74.982 181.02 C 121.334 483.363 185.261 512 255.997 512 s 134.663 -28.637 181.015 -74.983 C 483.358 390.66 512 326.734 512 255.997 C 512 185.407 483.358 121.339 437.012 74.982 z" stroke-linecap="round" />
</g>
<g transform="matrix(0.39 0 0 0.39 200 200.02)" id="Layer_1"  >
<path style="stroke: none; stroke-width: 1; stroke-dasharray: none; stroke-linecap: butt; stroke-dashoffset: 0; stroke-linejoin: miter; stroke-miterlimit: 4; fill: rgb(255,255,255); fill-rule: evenodd; opacity: 1;"  transform=" translate(-256.01, -256.04)" d="M 397.602 184.7 c -3.826 -2.832 -17.574 -2.832 -31.181 -2.832 c -13.894 0.283 -27.787 0.283 -31.049 1.56 c -2.969 1.131 -9.633 17.292 -18.276 33.871 c -9.931 18.721 -21.972 36.86 -29.631 36.567 c -10.062 0 -7.648 -30.756 -6.941 -53.571 c 0.137 -14.888 -2.271 -19.71 -4.397 -20.977 c -5.245 -3.69 -19.7 -7.225 -19.7 -7.225 s -43.383 -3.267 -49.472 15.444 c 8.36 1.136 22.537 -1.424 17.009 56.55 c -0.424 2.842 -6.664 26.652 -26.793 -5.528 c -5.104 -8.073 -24.375 -56.409 -31.181 -56.691 c -22.264 -0.429 -44.367 -1.419 -52.016 2.832 c -7.235 4.256 9.633 37.421 38.127 81.935 c 23.098 36.567 47.624 64.92 90.149 72.004 c 8.077 0.857 28.777 1.696 35.441 -1.414 c 4.387 -2.131 -1.142 -33.594 14.03 -36.719 c 6.664 -1.271 32.594 32.893 42.373 36.719 c 5.968 2.408 19.003 3.398 32.326 2.828 c 14.46 -0.42 30.894 1.424 32.453 -8.498 c 3.55 -21.688 -43.787 -50.047 -45.069 -63.365 c -1.136 -9.638 17.297 -27.354 26.646 -40.965 C 392.068 210.781 404.837 190.94 397.602 184.7 L 397.602 184.7 z" stroke-linecap="round" />
</g>
</svg>