<?xml version="1.0" standalone="no"?>
<!DOCTYPE svg PUBLIC "-//W3C//DTD SVG 20010904//EN"
 "http://www.w3.org/TR/2001/REC-SVG-20010904/DTD/svg10.dtd">
<svg version="1.0" xmlns="http://www.w3.org/2000/svg"
 width="66.000000pt" height="41.000000pt" viewBox="0 0 66.000000 41.000000"
 preserveAspectRatio="xMidYMid meet">
<metadata>
Created by potrace 1.16, written by Peter Selinger 2001-2019
</metadata>
<g transform="translate(0.000000,41.000000) scale(0.100000,-0.100000)"
fill="#000000" stroke="none">
<path d="M227 403 c-12 -12 -7 -33 7 -33 18 0 30 -65 21 -114 -4 -21 -13 -36
-21 -36 -8 0 -34 39 -57 88 l-43 87 -64 0 c-58 0 -65 -2 -68 -21 -3 -24 84
-200 132 -265 18 -25 55 -60 82 -77 40 -27 57 -32 109 -32 l62 0 7 39 c3 22
11 43 17 47 6 3 30 -14 53 -40 l43 -46 76 0 77 0 0 29 c0 21 -14 45 -50 84
-27 30 -50 59 -50 65 0 5 23 42 50 83 38 55 50 82 48 104 -3 30 -4 30 -68 33
-36 1 -69 -1 -75 -5 -5 -5 -28 -44 -50 -88 -53 -105 -70 -106 -71 -4 -1 110 0
109 -87 109 -41 0 -77 -3 -80 -7z"/>
</g>
</svg>
