<?xml version="1.0" standalone="no"?>
<!DOCTYPE svg PUBLIC "-//W3C//DTD SVG 20010904//EN"
 "http://www.w3.org/TR/2001/REC-SVG-20010904/DTD/svg10.dtd">
<svg version="1.0" xmlns="http://www.w3.org/2000/svg"
 width="68.000000pt" height="68.000000pt" viewBox="0 0 68.000000 68.000000"
 preserveAspectRatio="xMidYMid meet">
<metadata>
Created by potrace 1.16, written by Peter Selinger 2001-2019
</metadata>
<g transform="translate(0.000000,68.000000) scale(0.100000,-0.100000)"
fill="#000000" stroke="none">
<path d="M229 666 c-88 -31 -164 -101 -205 -190 -19 -41 -24 -67 -24 -137 0
-76 4 -93 30 -146 34 -67 94 -129 162 -165 37 -20 57 -23 148 -23 91 0 111 3
148 23 63 34 124 93 158 154 27 49 29 61 29 158 0 91 -3 111 -23 148 -36 68
-98 128 -165 162 -52 26 -71 30 -141 30 -45 -1 -97 -7 -117 -14z m268 -169
c28 -27 28 -29 28 -157 0 -128 0 -130 -28 -157 -27 -28 -29 -28 -157 -28 -128
0 -130 0 -157 28 -28 27 -28 29 -28 156 0 115 2 131 20 151 32 35 53 40 177
37 114 -2 119 -3 145 -30z"/>
<path d="M240 500 c-18 -4 -40 -16 -46 -25 -28 -38 -30 -216 -4 -265 15 -27
50 -35 160 -35 144 1 155 12 155 165 0 102 -8 136 -37 151 -27 15 -182 21
-228 9z m165 -95 c19 -18 25 -35 25 -65 0 -56 -34 -90 -90 -90 -56 0 -90 34
-90 90 0 56 34 90 90 90 30 0 47 -6 65 -25z"/>
<path d="M292 387 c-28 -30 -28 -68 1 -95 30 -28 68 -28 95 1 28 30 28 68 -1
95 -30 28 -68 28 -95 -1z"/>
</g>
</svg>
