<!DOCTYPE svg PUBLIC "-//W3C//DTD SVG 20010904//EN" "http://www.w3.org/TR/2001/REC-SVG-20010904/DTD/svg10.dtd">
<svg version="1.0" xmlns="http://www.w3.org/2000/svg" width="61px" height="64px" viewBox="0 0 610 640" preserveAspectRatio="xMidYMid meet">
<g id="layer101" fill="#000000" stroke="none">
 <path d="M170 614 c-67 -38 -109 -82 -141 -149 -25 -52 -29 -72 -29 -146 0 -76 4 -93 31 -147 55 -111 139 -164 265 -170 97 -5 148 13 216 76 70 65 92 119 96 235 4 89 1 103 -22 150 -32 66 -86 122 -148 153 -39 20 -62 24 -135 24 -76 0 -94 -4 -133 -26z m100 -109 l36 -35 34 35 c19 19 42 35 52 35 30 0 20 -34 -22 -75 -22 -21 -40 -42 -40 -46 0 -4 12 -10 28 -14 42 -10 72 -33 72 -55 0 -24 -24 -26 -60 -5 -33 19 -82 19 -127 0 -40 -17 -63 -14 -63 9 0 16 37 42 74 52 14 3 26 9 26 12 0 4 -19 25 -41 48 -27 28 -40 48 -36 58 10 25 28 19 67 -19z m89 -199 c68 -36 68 -156 0 -192 -44 -22 -85 -17 -121 15 -29 26 -33 35 -33 81 0 46 4 55 33 81 36 32 77 37 121 15z"/>
 <path d="M270 250 c-11 -11 -20 -29 -20 -40 0 -25 34 -60 58 -60 46 0 69 72 34 103 -25 22 -48 21 -72 -3z"/>
 </g>

</svg>